<svg version="1.1" xmlns="https://www.w3.org/2000/svg" xmlns:xlink="https://www.w3.org/1999/xlink" x="0px" y="0px" width="225px" height="200px" viewBox="0 0 126.75 103.25" enable-background="new 0 0 126.75 103.25" xml:space="preserve">
					<g class="corps" style="fill: rgb(255, 56, 56);">
						<path d="M126.153,71.798c0,35.275-30.128,31.452-65.403,31.452S0.411,107.073,0.411,71.798S34,0.927,63.282,0.927C92,0.927,126.153,36.523,126.153,71.798z"></path>
					</g>
					<g class="ombre">
						<path opacity="0.1" d="M98.583,98.968c0,5.085-4.708,4.313-37.833,4.313c-29.563,0-32.769,0.771-32.769-4.313c0-8.718,18.86-10.218,35.301-10.218C79.407,88.75,98.583,91.125,98.583,98.968z"></path>
					</g>
					<g class="reflet">
						<ellipse transform="matrix(0.5486 -0.8361 0.8361 0.5486 20.2905 77.5842)" opacity="0.5" fill="#FFFFFF" cx="82" cy="20" rx="7.75" ry="13.75"></ellipse>
					</g>
					<g class="yeux">
						<g>
							<path d="M36.833,66.583c-3.359,0-6.083,2.724-6.083,6.083c0,3.359,2.724,6.083,6.083,6.083c3.36,0,6.083-2.724,6.083-6.083
					C42.917,69.307,40.193,66.583,36.833,66.583z M39.5,71.25c-0.874,0-1.583-0.709-1.583-1.583c0-0.875,0.709-1.583,1.583-1.583
					c0.875,0,1.583,0.709,1.583,1.583C41.083,70.541,40.375,71.25,39.5,71.25z"></path>
							<circle fill="#FFFFFF" cx="39.5" cy="69.667" r="1.583"></circle>
							<path d="M88.833,66.583c-3.359,0-6.083,2.724-6.083,6.083c0,3.359,2.724,6.083,6.083,6.083c3.36,0,6.083-2.724,6.083-6.083
					C94.917,69.307,92.193,66.583,88.833,66.583z M91.5,71.25c-0.874,0-1.583-0.709-1.583-1.583c0-0.875,0.709-1.583,1.583-1.583
					c0.875,0,1.583,0.709,1.583,1.583C93.083,70.541,92.375,71.25,91.5,71.25z"></path>
							<circle fill="#FFFFFF" cx="91.5" cy="69.667" r="1.583"></circle>
						</g>
					</g>
					<g class="bouche">
						<g>
							<path fill="#A862A6">
								<animate id="animBouche" attributeName="d" dur="3s" repeatCount="indefinite" values="M49.9,78c0,3.151,1.885,5.435,4.528,7c3.228-1.911,7.589-2.749,11.072-2.749S73.344,83.089,76.572,85
			c2.643-1.565,4.528-3.849,4.528-7H65.584H49.9z; 
					M49.9,73c0,3.151,1.885,10.435,4.528,12c3.228-1.911,7.589-2.749,11.072-2.749S73.344,83.089,76.572,85
			c2.643-1.565,4.528-8.849,4.528-12H65.584H49.9z;
			M49.9,78c0,3.151,1.885,5.435,4.528,7c3.228-1.911,7.589-2.749,11.072-2.749S73.344,83.089,76.572,85
			c2.643-1.565,4.528-3.849,4.528-7H65.584H49.9z"></animate>
							</path>
							<path fill="#E0B7E5" d="M52.678,84.25c7.116,3.558,15.028,3.558,22.144,0C68.463,80.485,59.037,80.485,52.678,84.25
					C52.679,84.25,52.656,84.25,52.678,84.25z"></path>
						</g>
					</g>
				</svg>