<svg xmlns="http://www.w3.org/2000/svg" viewBox="0 0 1024 1024" fill="#fff"><path d="M152.075 123.512h305.152c31.032 3.073 23.552 57.696 23.552 93.184v168.96c0 36.721 6.915 81.73-17.408 92.16-15.84 6.793-58.351 2.048-78.848 2.048H222.731c-37.4 0-88.47 8.927-94.208-23.552V147.064c4.182-11.52 11.539-19.864 23.552-23.552zm41.984 69.632v220.16h220.16V190.072H195.083c-1.193.172-1.112 1.619-1.024 3.072zm367.616-69.632h305.152c12.448 4.618 21.001 13.133 23.552 27.648v301.056c-2.792 12.51-9.324 23.196-21.504 26.624-19.904 5.6-52.977 1.024-76.8 1.024H635.403c-23.626 0-58.642 4.976-77.824-1.024-27.077-8.472-19.456-61.33-19.456-98.304V222.84c0-42.692-9.37-93.363 23.552-99.328zm41.984 69.632v220.16h220.16V190.072H604.683c-1.193.172-1.112 1.619-1.024 3.072zm-309.248 64.512c30.662-5.787 54.775 14.93 55.296 43.008.687 37.026-37.129 57.365-66.56 41.984-33.67-17.598-31.454-76.93 11.264-84.992zm409.6 0c72.224-13.493 70.84 100.886 0 89.088-45.081-7.508-46.536-80.393 0-89.088zM455.18 895.608H153.1c-12.542-3.843-21.013-11.756-24.577-24.576V562.808c2.983-9.02 9.869-19.542 20.48-22.528 20.045-5.64 52.787-1.024 76.8-1.024h156.672c23.155 0 56.853-5.168 77.824 1.024 28.372 8.376 20.48 60.376 20.48 97.28v162.816c0 39.83 8.577 91.675-25.6 95.232zm-261.12-286.72v220.16h220.16V605.816H195.082c-1.193.172-1.112 1.619-1.024 3.072zm696.32-41.984v86.016c-2.39 29.014-.343 62.463-1.025 93.184H671.243v-50.176c-20.48-2.388-45.396-.342-67.584-1.024-2.389 64.854-.34 134.143-1.024 200.704H562.7c-34.338-6.882-24.576-58.408-24.576-99.328V637.56c0-23.866-4.83-59.643 1.024-78.848 6.985-22.913 37.275-19.456 67.584-19.456h148.48v136.192h68.608c.682-45.056-1.365-92.842 1.024-136.192 33.015-1.954 63.597-1.473 65.536 27.648zM299.531 672.376c32.74-3.624 59.805 27.841 47.104 62.464-17.604 47.99-101.778 29.953-86.016-30.72 4.357-16.771 16.942-29.312 38.912-31.744zm445.44 223.232h-73.728c.682-26.284-1.364-55.295 1.024-79.872h72.704v79.872zm145.409-79.872v52.224c-2.847 14.561-11.362 23.455-24.577 27.648H813.58c.682-26.284-1.364-55.295 1.024-79.872h75.776z"/></svg>
