<svg xmlns="http://www.w3.org/2000/svg" viewBox="0 0 1228 1024" fill="#fff"><path d="M1206.955 631.467c0-170.872-170.94-309.931-362.77-309.931-203.23 0-363.246 139.264-363.246 309.93 0 171.009 160.017 309.863 363.178 309.863 42.667 0 85.607-10.786 128.342-21.436l117.009 64.171-32.154-106.77c85.743-64.306 149.64-149.571 149.64-245.896zM731.819 584.02a48.401 48.401 0 1 1 0-96.734 48.401 48.401 0 0 1 0 96.734zm235.042-.41a48.401 48.401 0 1 1 0-96.733 48.401 48.401 0 0 1 0 96.734zM427.35 1.092C192.511 1.092.272 161.11.272 364.271c0 117.419 63.966 213.675 170.872 288.427l-42.667 128.477 149.23-74.888c53.454 10.513 96.257 21.436 149.641 21.436 13.449 0 26.76-.683 39.936-1.707a317.85 317.85 0 0 1-13.175-89.498c0-186.64 160.222-338.124 363.11-338.124 13.927 0 27.58.955 41.097 2.525-37-172.032-220.98-299.827-430.968-299.827zm-143.43 293.07a58.061 58.061 0 1 1 0-116.123 58.061 58.061 0 0 1 0 116.122zm298.257 0a58.061 58.061 0 1 1 0-116.123 58.061 58.061 0 0 1 0 116.122z"/></svg>
